<?xml version="1.0" standalone="no"?>
<!DOCTYPE svg PUBLIC "-//W3C//DTD SVG 20010904//EN"
 "http://www.w3.org/TR/2001/REC-SVG-20010904/DTD/svg10.dtd">
<svg version="1.0" xmlns="http://www.w3.org/2000/svg"
 width="1920.000000pt" height="1080.000000pt" viewBox="0 0 1920.000000 1080.000000"
 preserveAspectRatio="xMidYMid meet">

<g transform="translate(0.000000,1080.000000) scale(0.100000,-0.100000)"
fill="#000000" stroke="none">
<path d="M9593 5749 c-55 -13 -72 -33 -48 -59 16 -17 16 -23 2 -62 -9 -27 -20
-42 -28 -39 -33 9 -110 13 -134 7 -41 -10 -101 -72 -125 -128 -28 -64 -31
-150 -7 -195 33 -62 113 -81 176 -42 31 19 35 19 51 4 21 -19 87 -30 123 -21
13 3 36 17 50 32 l26 26 31 -25 c36 -31 125 -51 183 -42 57 9 126 41 161 73
69 65 96 185 56 250 -62 101 -274 95 -381 -11 -23 -23 -40 -35 -37 -27 28 78
59 206 54 225 -10 39 -69 52 -153 34z m357 -249 c0 -37 -44 -178 -65 -207 -9
-13 -23 -23 -31 -23 -22 0 -17 60 12 150 36 110 84 155 84 80z m-440 19 c0
-30 -62 -208 -74 -212 -19 -8 -36 12 -36 43 0 41 28 124 51 154 21 26 59 36
59 15z m146 -217 c-13 -12 -17 8 -10 40 l9 33 3 -33 c2 -19 1 -36 -2 -40z"/>
<path d="M7235 5691 c-3 -5 0 -21 6 -35 17 -37 -73 -359 -109 -393 -40 -37
-23 -53 53 -53 71 0 86 11 66 48 -8 15 -3 46 21 131 17 61 34 111 37 111 4 0
31 -53 61 -117 67 -144 90 -173 136 -173 45 0 68 25 87 91 8 30 32 115 53 189
25 90 45 144 61 161 38 42 31 49 -52 49 -79 0 -88 -7 -65 -49 6 -13 1 -47 -19
-117 l-28 -99 -63 125 c-34 69 -68 128 -74 132 -16 11 -164 10 -171 -1z"/>
<path d="M11520 5687 c0 -8 9 -22 20 -32 26 -24 26 -28 -15 -169 -50 -172 -63
-204 -86 -211 -29 -9 -34 0 -15 27 18 25 21 70 6 98 -13 24 -63 35 -92 19 -76
-40 -70 -142 11 -187 52 -29 165 -31 219 -3 75 38 84 55 144 266 31 112 45
144 65 161 45 36 24 44 -123 44 -106 0 -134 -3 -134 -13z"/>
<path d="M7870 5591 c-115 -37 -182 -112 -195 -217 -11 -91 37 -147 142 -165
122 -22 238 28 293 125 39 67 46 120 25 174 -25 61 -69 85 -164 88 -42 2 -87
0 -101 -5z m100 -79 c0 -29 -39 -162 -61 -204 -21 -41 -51 -49 -57 -15 -5 22
44 183 64 215 17 27 54 30 54 4z"/>
<path d="M8223 5585 c-33 -14 -43 -38 -22 -51 14 -8 9 -46 -22 -155 -27 -100
-21 -127 33 -156 83 -43 201 -11 293 82 96 95 123 208 66 266 -84 83 -184 -25
-116 -125 23 -34 25 -42 14 -67 -22 -56 -105 -109 -123 -81 -3 5 8 51 24 103
37 117 37 133 1 170 -24 23 -38 29 -73 29 -24 -1 -58 -7 -75 -15z"/>
<path d="M8744 5581 c-58 -27 -73 -76 -32 -105 51 -36 131 -7 131 47 0 29 17
36 36 13 9 -11 9 -24 2 -53 -17 -60 -21 -63 -66 -53 -97 23 -180 -2 -208 -63
-26 -54 -22 -84 18 -124 34 -34 38 -35 91 -31 33 3 65 13 82 25 l28 21 29 -25
c25 -22 36 -25 84 -21 46 4 59 10 83 37 32 36 32 58 0 53 -12 -2 -22 -2 -22 0
0 2 9 32 20 66 29 93 27 147 -8 182 -52 51 -188 67 -268 31z m96 -211 c0 -26
-32 -71 -48 -68 -24 5 -27 36 -6 59 18 20 54 26 54 9z"/>
<path d="M10243 5589 c-41 -12 -49 -25 -33 -55 11 -20 8 -39 -21 -136 -19 -62
-44 -125 -57 -140 -13 -15 -21 -32 -17 -38 8 -13 232 -13 240 0 3 5 0 18 -7
29 -20 33 36 211 74 235 13 8 21 7 29 -1 10 -10 7 -28 -14 -80 -38 -99 -41
-117 -23 -151 15 -29 61 -52 103 -52 32 0 95 35 108 59 13 27 5 65 -9 42 -4
-6 -11 -9 -15 -6 -5 2 5 50 21 105 33 110 32 137 -7 176 -41 41 -132 30 -180
-22 -17 -18 -25 -22 -25 -12 0 8 -10 24 -23 36 -25 24 -84 28 -144 11z"/>
<path d="M10833 5589 c-30 -9 -73 -51 -73 -71 0 -21 50 -58 78 -58 39 0 82 35
82 66 0 28 27 33 37 7 5 -13 -11 -101 -21 -110 -2 -2 -27 2 -55 8 -120 25
-211 -24 -211 -114 0 -68 30 -99 101 -104 46 -4 60 -1 92 21 l38 26 18 -21
c37 -46 162 -32 191 20 18 34 13 53 -11 46 -19 -6 -21 -4 -16 16 34 130 40
158 33 183 -10 38 -46 72 -92 85 -46 13 -146 13 -191 0z m77 -227 c0 -23 -28
-62 -44 -62 -19 0 -28 28 -16 50 17 32 60 40 60 12z"/>
<path d="M11823 5589 c-40 -12 -49 -25 -33 -54 10 -19 8 -36 -14 -108 -34
-111 -34 -156 0 -188 37 -34 134 -35 182 0 l33 23 15 -21 c8 -11 32 -26 54
-32 33 -10 47 -9 85 5 47 18 65 39 65 77 0 17 -3 19 -14 10 -26 -22 -24 3 10
114 41 132 42 150 9 171 -32 21 -131 15 -169 -9 -24 -16 -25 -19 -11 -40 13
-21 12 -31 -11 -107 -29 -95 -38 -110 -65 -110 -25 0 -24 18 6 115 31 100 32
129 3 149 -25 18 -94 20 -145 5z"/>
<path d="M8650 3328 c-150 -6 -386 -33 -540 -62 l-75 -14 69 -1 c68 -1 68 -1
63 -27 -4 -24 -3 -26 25 -20 17 3 37 6 44 6 8 0 13 3 13 8 -5 32 1 34 129 32
70 -1 242 1 383 5 231 7 264 6 323 -10 57 -15 72 -16 105 -5 50 16 74 10 81
-19 3 -15 16 -28 33 -34 34 -11 42 -5 29 20 -8 13 -7 22 4 34 14 15 8 18 -63
37 -177 47 -357 62 -623 50z"/>
<path d="M7866 3221 c-22 -5 -32 -15 -43 -45 -7 -22 -12 -40 -11 -42 9 -8 111
21 115 33 6 15 -15 64 -26 62 -3 -1 -19 -4 -35 -8z"/>
<path d="M7593 3159 c-38 -11 -42 -28 -14 -53 16 -15 30 -17 70 -11 28 4 51
11 51 15 0 10 -59 60 -68 59 -4 0 -22 -5 -39 -10z"/>
<path d="M9530 3145 c-15 -39 -12 -53 11 -66 17 -8 27 -8 46 2 34 18 59 1 55
-38 -3 -26 5 -37 68 -88 39 -32 93 -83 119 -113 47 -53 49 -54 76 -41 16 8 30
19 32 26 5 15 -153 175 -227 230 -30 22 -81 57 -113 77 l-57 37 -10 -26z"/>
<path d="M7140 3039 c-472 -137 -1077 -334 -1695 -554 -165 -59 -373 -132
-463 -163 l-163 -57 6 -30 c3 -16 9 -33 13 -37 5 -5 40 3 78 18 38 14 281 100
539 191 777 273 1408 478 1803 586 68 18 123 37 122 40 0 4 0 21 0 37 0 22 -5
30 -17 29 -10 0 -110 -27 -223 -60z"/>
<path d="M13049 2919 c-230 -33 -495 -141 -964 -389 -343 -182 -733 -372 -845
-414 -191 -70 -280 -89 -420 -90 -124 -1 -126 -1 -200 35 -135 65 -227 160
-425 439 -48 69 -108 151 -132 183 -43 56 -45 57 -94 57 l-49 0 88 -117 c49
-65 126 -170 172 -233 120 -166 196 -253 275 -317 138 -111 253 -144 428 -125
263 29 485 120 1177 483 572 300 760 376 1029 414 106 15 141 16 245 7 303
-28 543 -150 910 -460 l89 -76 23 29 c29 37 32 33 -136 168 -306 246 -544 368
-797 406 -82 13 -290 13 -374 0z"/>
</g>
</svg>
